<?xml version="1.0" standalone="no"?>
<!DOCTYPE svg PUBLIC "-//W3C//DTD SVG 20010904//EN"
 "http://www.w3.org/TR/2001/REC-SVG-20010904/DTD/svg10.dtd">
<svg version="1.0" xmlns="http://www.w3.org/2000/svg"
 width="500.000000pt" height="500.000000pt" viewBox="0 0 500.000000 500.000000"
 preserveAspectRatio="xMidYMid meet">

<g transform="translate(0.000000,500.000000) scale(0.100000,-0.100000)"
fill="#000000" stroke="none">
<path d="M2813 3572 c-10 -6 -33 -53 -79 -159 -25 -57 -6 -36 41 47 l46 79 29
-33 c42 -48 88 -138 95 -190 13 -84 -13 -158 -123 -357 -36 -65 -40 -78 -28
-88 20 -17 44 -3 94 54 86 98 142 285 122 411 -17 102 -81 203 -147 230 -38
16 -35 16 -50 6z"/>
<path d="M2130 3543 c-46 -19 -78 -61 -106 -137 -47 -129 -39 -235 28 -374 37
-77 146 -196 175 -190 32 6 25 35 -33 124 -32 49 -71 118 -88 154 -58 123 -43
262 37 355 l32 37 48 -71 c26 -39 50 -71 53 -71 9 0 -88 179 -100 183 -6 3
-27 -2 -46 -10z"/>
<path d="M2425 3479 c-99 -82 -160 -198 -178 -340 -10 -78 -9 -102 7 -177 20
-101 72 -204 129 -260 l39 -37 -45 90 c-25 50 -52 114 -61 144 -30 102 -16
254 33 349 10 20 48 77 84 125 l65 88 75 -92 c105 -127 149 -219 155 -321 5
-93 -13 -174 -64 -287 -19 -41 -33 -76 -31 -78 8 -7 47 45 81 107 129 237 60
560 -151 699 -25 17 -56 31 -67 31 -12 0 -44 -19 -71 -41z"/>
<path d="M3234 3367 c-10 -7 -57 -21 -104 -33 -83 -21 -84 -22 -57 -34 27 -13
50 -9 159 27 15 4 17 -2 14 -48 -7 -113 -98 -225 -218 -269 -79 -29 -96 -43
-78 -64 20 -25 98 -20 156 9 149 74 247 272 190 382 -18 37 -36 45 -62 30z"/>
<path d="M1721 3304 c-52 -66 -11 -211 86 -306 71 -69 132 -98 208 -98 49 0
64 4 69 16 9 23 -9 41 -47 48 -90 17 -197 92 -243 172 -27 46 -45 144 -26 144
6 0 37 -7 69 -15 60 -16 117 -12 110 8 -2 7 -26 15 -53 18 -47 6 -101 19 -135
34 -11 4 -24 -3 -38 -21z"/>
<path d="M3390 3185 c0 -28 -51 -116 -93 -162 l-42 -46 35 7 c71 15 100 28
125 57 28 35 32 73 11 124 -15 36 -36 47 -36 20z"/>
<path d="M1595 3118 c-18 -44 -19 -64 -4 -106 13 -37 69 -67 144 -77 l50 -7
-37 29 c-47 36 -72 68 -108 140 l-29 57 -16 -36z"/>
<path d="M3510 2983 c-8 -3 -53 -28 -99 -56 -113 -67 -151 -77 -333 -86 -141
-7 -162 -11 -212 -35 -57 -28 -186 -156 -186 -184 0 -10 4 -11 13 -5 90 72
186 135 218 143 21 6 110 10 197 9 174 -2 227 9 321 70 25 17 48 26 49 21 7
-19 -59 -109 -124 -170 -102 -95 -216 -144 -366 -156 -115 -10 -92 -41 32 -43
244 -4 562 259 548 453 -3 42 -20 53 -58 39z"/>
<path d="M1472 2921 c-18 -11 -7 -94 20 -151 27 -57 134 -163 218 -218 119
-78 302 -115 399 -81 59 21 37 35 -56 35 -154 0 -290 58 -404 170 -50 50 -116
143 -93 132 5 -2 38 -18 73 -36 98 -48 156 -56 287 -43 207 21 235 16 365 -69
43 -29 82 -50 86 -46 9 8 -80 100 -132 135 -74 52 -122 61 -310 58 l-170 -2
-130 63 c-142 68 -135 65 -153 53z"/>
<path d="M3520 2696 c0 -19 24 -32 78 -41 23 -4 42 -10 42 -15 0 -4 -35 -41
-79 -82 -92 -89 -150 -115 -280 -126 l-86 -8 31 -17 c51 -27 104 -31 174 -13
154 40 308 166 322 265 4 29 -12 35 -124 45 -66 6 -78 4 -78 -8z"/>
<path d="M1400 2626 c-59 -10 -65 -13 -68 -37 -7 -60 106 -161 246 -220 92
-38 195 -45 249 -16 56 30 52 41 -11 34 -123 -12 -247 31 -348 123 -32 28 -58
55 -58 60 0 4 17 11 38 15 41 7 82 30 82 45 0 13 -46 11 -130 -4z"/>
<path d="M2640 2531 c0 -39 122 -130 224 -165 37 -13 69 -26 72 -29 11 -10
-113 -25 -156 -18 -63 10 -103 34 -147 86 -40 48 -63 57 -63 25 0 -37 39 -99
79 -126 46 -30 129 -54 190 -54 58 0 157 26 207 56 47 26 97 81 91 98 -2 7
-44 11 -118 11 -128 0 -169 13 -288 94 -66 45 -91 51 -91 22z"/>
<path d="M2300 2479 c-116 -82 -138 -91 -258 -97 -116 -5 -131 -15 -91 -58 82
-88 282 -118 411 -62 58 25 113 83 127 134 20 72 -11 73 -57 3 -46 -70 -108
-99 -213 -99 -42 0 -79 3 -82 7 -4 3 23 19 59 34 106 45 238 158 219 189 -11
18 -28 10 -115 -51z"/>
<path d="M2245 2102 c-99 -47 -143 -151 -96 -228 l18 -30 -48 0 c-71 0 -104
-27 -104 -85 0 -38 4 -45 33 -62 74 -43 230 -13 288 56 35 42 44 67 59 175 16
106 33 142 71 142 29 0 84 26 84 40 0 14 -17 13 -26 -1 -4 -7 -26 -9 -63 -5
-148 17 -175 17 -216 -2z m169 -32 c7 -7 6 -10 0 -10 -18 0 -51 -72 -79 -170
-43 -154 -87 -200 -188 -200 -82 0 -128 69 -76 116 23 20 89 25 144 10 l30 -8
-33 22 c-64 43 -79 115 -39 184 34 60 77 79 162 71 38 -3 74 -10 79 -15z"/>
<path d="M2644 2101 c-43 -26 -67 -83 -72 -169 -3 -53 0 -86 13 -118 21 -55
30 -54 10 1 -45 126 10 285 98 285 87 0 87 -116 2 -351 l-25 -69 28 0 c24 0
30 8 56 73 78 196 165 337 207 337 37 0 33 -60 -16 -210 -36 -111 -45 -161
-34 -182 15 -28 54 -22 83 13 33 39 34 64 1 27 -55 -64 -58 -26 -9 126 44 136
54 215 29 239 -49 49 -113 -6 -194 -166 -29 -56 -50 -91 -46 -77 11 45 18 167
11 194 -15 61 -82 84 -142 47z"/>
<path d="M2477 1723 c-4 -3 -7 -15 -7 -25 0 -14 6 -19 23 -16 29 4 38 48 9 48
-10 0 -22 -3 -25 -7z"/>
</g>
</svg>
